<?xml version="1.0" encoding="UTF-8"?>
<svg version="1.1" xmlns="http://www.w3.org/2000/svg" width="762" height="443">
<path d="M0 0 C0.75026022 -0.00297112 1.50052044 -0.00594224 2.27351582 -0.0090034 C4.80077339 -0.01771154 7.32798372 -0.01920042 9.85525513 -0.02069092 C11.66184593 -0.02531757 13.46843574 -0.03034202 15.27502441 -0.03573608 C20.19237273 -0.0488762 25.10970739 -0.05530809 30.02707052 -0.05974674 C33.09689742 -0.06267467 36.16672055 -0.06677892 39.23654556 -0.07125092 C48.83457989 -0.08492964 58.43260566 -0.09459465 68.03064907 -0.09845281 C79.12284214 -0.10293565 90.21491212 -0.1204925 101.30706775 -0.1494534 C109.87270737 -0.17104408 118.43831229 -0.18115568 127.00397885 -0.18249393 C132.12377277 -0.18354377 137.24345104 -0.18948956 142.3632164 -0.20731354 C147.1779881 -0.22374925 151.99255665 -0.2259717 156.80734634 -0.21717453 C158.57626132 -0.21640175 160.34518701 -0.22077839 162.11407471 -0.23063278 C164.52567564 -0.24328167 166.93654934 -0.23751445 169.34814453 -0.22705078 C170.40252285 -0.23913539 170.40252285 -0.23913539 171.47820175 -0.25146413 C174.49650412 -0.22075409 176.54422201 -0.00227543 179.20436287 1.47591019 C182.0552468 4.44791957 181.92838096 7.44399881 181.94290161 11.35528564 C181.95345329 12.95340088 181.95345329 12.95340088 181.96421814 14.58380127 C181.96838242 15.73686768 181.97254669 16.88993408 181.97683716 18.07794189 C182.00004953 20.52456495 182.02416742 22.97117955 182.04910278 25.41778564 C182.08410412 29.27086935 182.11349712 33.12364492 182.12698364 36.97686768 C182.14255608 40.69843977 182.1828417 44.41911087 182.22683716 48.14044189 C182.22397453 49.84575073 182.22397453 49.84575073 182.22105408 51.58551025 C182.37916201 62.04197244 184.65410864 70.39791569 191.80105591 78.14044189 C191.80105591 78.80044189 191.80105591 79.46044189 191.80105591 80.14044189 C192.35664185 80.41759033 192.91222778 80.69473877 193.48464966 80.98028564 C195.08307701 81.78084707 196.67930491 82.58580987 198.27371216 83.39434814 C199.1283606 83.82618408 199.98300903 84.25802002 200.86355591 84.70294189 C201.72078247 85.13735596 202.57800903 85.57177002 203.46121216 86.01934814 C207.75276333 88.07556715 211.06463876 88.27418261 215.79177856 88.29815674 C216.85339706 88.30577782 216.85339706 88.30577782 217.9364624 88.31355286 C219.47351471 88.32424993 221.01058252 88.33287271 222.54765701 88.33967209 C224.98680926 88.35148444 227.4257863 88.37094601 229.86486816 88.39279175 C236.8000803 88.45430927 243.73527626 88.50831798 250.67068481 88.54180908 C254.9147922 88.56285391 259.15858256 88.59824017 263.40250778 88.64256668 C265.0138613 88.6566552 266.62527094 88.66543284 268.23668289 88.66862106 C277.7616684 88.68945104 286.02095243 88.85629219 294.55105591 93.70294189 C299.85709527 99.4511512 302.11913458 105.18416198 302.30105591 113.01544189 C301.62888731 129.34206342 295.45234336 141.79933847 283.80105591 153.14044189 C270.81093277 165.01911065 256.77509657 167.46650454 239.70339966 167.33575439 C238.25894874 167.33201696 236.81449527 167.32917344 235.37004089 167.32717896 C231.59713549 167.31959996 227.82438791 167.30000189 224.05154419 167.277771 C220.19007501 167.25718791 216.32857994 167.24815078 212.46707153 167.23809814 C204.91166161 167.21674963 197.356381 167.1826844 189.80105591 167.14044189 C189.80382129 168.23927641 189.80658667 169.33811092 189.80943584 170.47024345 C189.8760652 197.22010315 189.92534779 223.96995206 189.95649242 250.71987724 C189.97195445 263.65599392 189.99303138 276.59205574 190.02737427 289.52813721 C190.05729684 300.80458238 190.07663574 312.08098782 190.08332139 323.35747159 C190.08722878 329.32703707 190.09639806 335.29648889 190.11824608 341.26601791 C190.13865625 346.88840573 190.1448805 352.51063339 190.14037895 358.13305473 C190.14120212 360.19293654 190.14714063 362.25282388 190.15867233 364.31267357 C190.23940345 379.48135437 189.61997727 391.35453354 179.01980591 403.11700439 C172.08518545 409.79583967 164.33285878 412.31715318 154.80105591 412.64044189 C142.67400831 412.20355044 135.0572786 407.90497681 126.80105591 399.14044189 C119.23757622 390.02547919 119.38013506 378.99855702 119.50808716 367.72637939 C119.51369476 366.26093992 119.51795934 364.79549476 119.52095032 363.33004761 C119.5323077 359.50610337 119.56169413 355.68251066 119.59506226 351.85870361 C119.6259617 347.94355014 119.63949776 344.02833887 119.65457153 340.11309814 C119.6865745 332.45538724 119.73765773 324.79796415 119.80105591 317.14044189 C119.05090714 317.42302856 118.30075836 317.70561523 117.52787781 317.99676514 C116.54109543 318.36322144 115.55431305 318.72967773 114.53762817 319.10723877 C113.5606044 319.47232544 112.58358063 319.83741211 111.57695007 320.21356201 C103.52482332 322.90219272 94.65523185 321.97169966 87.03933716 318.39434814 C79.58361498 314.21758232 74.7418908 309.08849096 69.80105591 302.14044189 C69.13203247 302.57356689 68.46300903 303.00669189 67.77371216 303.45294189 C58.02526307 309.10573385 48.73810129 309.74462676 37.84402466 307.54278564 C31.04194617 305.2397197 25.49259231 300.49059783 20.80105591 295.14044189 C19.51980591 292.35528564 19.51980591 292.35528564 18.80105591 290.14044189 C18.14621216 290.47817627 17.49136841 290.81591064 16.81668091 291.16387939 C6.16483894 296.36944058 -3.6339065 298.59029082 -15.19894409 295.14044189 C-25.12548953 291.57114738 -31.2885814 284.90236675 -36.07003784 275.69122314 C-38.0209343 271.28314223 -38.32678238 267.60365295 -38.33938599 262.77984619 C-38.34509613 261.47066727 -38.35080627 260.16148834 -38.35668945 258.81263733 C-38.35793477 257.36331186 -38.35905987 255.91398629 -38.3600769 254.46466064 C-38.3647069 252.93676128 -38.3697318 251.40886306 -38.37512207 249.88096619 C-38.38823568 245.7297037 -38.39468968 241.57845739 -38.39913273 237.42717743 C-38.40206678 234.82998946 -38.40617234 232.23280587 -38.4106369 229.63562012 C-38.42431273 221.49949286 -38.43397743 213.36337566 -38.43783879 205.2272377 C-38.44231171 195.85517019 -38.45982351 186.4832491 -38.48883939 177.11122608 C-38.51051691 169.85581321 -38.5205464 162.60044134 -38.52187991 155.34499645 C-38.52292414 151.01750748 -38.5287494 146.69015611 -38.54669952 142.36270142 C-38.56328417 138.28492414 -38.5652858 134.20738634 -38.55656052 130.12958717 C-38.55579551 128.64138964 -38.56006119 127.15317868 -38.57001877 125.66501427 C-38.68548786 107.31621323 -33.7190945 91.64698468 -22.13644409 77.26544189 C-16.64830907 70.18863621 -13.10726395 61.05089261 -13.04122925 52.08404541 C-13.02583603 50.57711876 -13.02583603 50.57711876 -13.01013184 49.03974915 C-13.00283051 47.96051682 -12.99552917 46.88128448 -12.98800659 45.76934814 C-12.95994534 43.48092944 -12.93128093 41.19251807 -12.90206909 38.90411377 C-12.86076448 35.29856515 -12.82387271 31.69315453 -12.7975769 28.08746338 C-12.76999075 24.60613841 -12.72412762 21.12543434 -12.67550659 17.64434814 C-12.67225372 16.56714005 -12.66900085 15.48993195 -12.66564941 14.38008118 C-12.51092542 4.96792445 -12.51092542 4.96792445 -9.19894409 1.14044189 C-6.24184021 -0.33811005 -3.2421707 -0.00397139 0 0 Z M4.80105591 17.14044189 C4.47105591 30.67044189 4.14105591 44.20044189 3.80105591 58.14044189 C0.29061609 71.3045912 -2.61378771 80.70548663 -10.76144409 91.14044189 C-17.30745387 99.52993167 -21.33381987 108.70255317 -21.31246948 119.37774658 C-21.31239395 120.63875183 -21.31231842 121.89975708 -21.3122406 123.19897461 C-21.30713438 124.57008911 -21.30191839 125.9412032 -21.29660034 127.31231689 C-21.29473437 128.71907501 -21.29331131 130.12583378 -21.29231262 131.53259277 C-21.28850153 135.22824917 -21.27868329 138.92386602 -21.26760864 142.61950684 C-21.25736423 146.39340683 -21.25280851 150.16731324 -21.24777222 153.94122314 C-21.23705973 161.34098072 -21.22000025 168.74070576 -21.19894409 176.14044189 C-20.3192395 175.85749268 -19.43953491 175.57454346 -18.53317261 175.28302002 C-17.37229126 174.91628174 -16.21140991 174.54954346 -15.01535034 174.17169189 C-13.86752075 173.80624268 -12.71969116 173.44079346 -11.53707886 173.06427002 C-2.68278161 170.61384504 5.60979952 172.07172322 13.80105591 176.14044189 C17.43522014 178.87222885 20.63816561 181.88152456 23.80105591 185.14044189 C24.68084106 186.02022705 24.68084106 186.02022705 25.57839966 186.91778564 C25.98187622 187.32126221 26.38535278 187.72473877 26.80105591 188.14044189 C27.35793091 187.73052002 27.91480591 187.32059814 28.48855591 186.89825439 C37.04423468 180.85725148 44.33642249 179.22095528 54.80105591 180.14044189 C62.11340631 181.4257738 67.21304379 184.36436316 72.80105591 189.14044189 C73.40433716 189.63544189 74.00761841 190.13044189 74.62918091 190.64044189 C76.03114437 191.79345857 77.41798409 192.96483085 78.80105591 194.14044189 C79.44171997 193.73052002 80.08238403 193.32059814 80.74246216 192.89825439 C90.48481717 186.82924635 99.05038848 184.64212618 110.51589966 186.60528564 C119.17868198 188.8610795 125.65147389 193.8452007 130.80105591 201.14044189 C134.27042737 207.85648868 135.92452019 213.31834243 135.93235779 220.90759277 C135.93553136 221.9271824 135.93553136 221.9271824 135.93876904 222.96736979 C135.94475859 225.24415224 135.94376963 227.52087909 135.94290161 229.79766846 C135.94593383 231.43057855 135.94945546 233.0634878 135.95343018 234.69639587 C135.96131521 238.21311792 135.96646262 241.72982983 135.96972084 245.24655914 C135.97563536 250.81072588 135.99218027 256.37482881 136.01106262 261.93896484 C136.01739994 263.84469982 136.02372556 265.75043484 136.03003979 267.65616989 C136.0332056 268.6105512 136.03637141 269.56493251 136.03963315 270.54823446 C136.08169074 283.50099672 136.1146811 296.45372918 136.12698364 309.40655518 C136.13536871 318.14508645 136.15787578 326.8834596 136.19633931 335.62191176 C136.21608457 340.24438611 136.22850961 344.86662416 136.22350502 349.48914337 C136.2188524 353.83951251 136.23269736 358.18943398 136.26051712 362.53971291 C136.26741851 364.13277276 136.26756679 365.725879 136.26031685 367.3189373 C136.03310483 380.01066138 136.03310483 380.01066138 142.28360462 390.67857742 C147.00930659 394.8641365 151.06877024 395.555381 157.16433716 395.48419189 C162.98448165 394.7254175 166.67701107 391.55270335 170.23855591 387.07794189 C173.03651733 381.81777442 172.94636612 377.00992268 172.93908691 371.13774109 C172.94190819 370.21764081 172.94472947 369.29754052 172.94763625 368.34955841 C172.95598423 365.25958075 172.95732065 362.1696389 172.95877075 359.07965088 C172.96343867 356.86720682 172.96858219 354.65476371 172.97416687 352.44232178 C172.98544905 347.67492704 172.9938825 342.90753856 173.0002861 338.14013481 C173.0109558 330.60725949 173.0311963 323.07442924 173.05340576 315.5415802 C173.08394082 304.98542743 173.11317367 294.42927335 173.13894653 283.87310791 C173.14058472 283.20326852 173.1422229 282.53342914 173.14391072 281.84329159 C173.17021868 270.97858214 173.1888506 260.1138693 173.20553844 249.24914145 C173.22294486 238.09687104 173.25196254 226.94466041 173.2904278 215.79244095 C173.3115446 209.52975917 173.32696173 203.26717293 173.32923508 197.00445366 C173.33137425 191.11852125 173.34716854 185.23278802 173.3736248 179.3469162 C173.38084625 177.18251962 173.3829051 175.01809899 173.37952232 172.85369301 C173.3756521 169.90760958 173.39000236 166.96217003 173.40905762 164.01615906 C173.40352792 163.15216269 173.39799823 162.28816633 173.39230096 161.39798826 C173.45793809 155.55239051 173.45793809 155.55239051 175.19992888 153.46094948 C178.61379585 150.64540946 181.3893283 151.01028351 185.73831177 150.99859619 C186.45245239 150.99512177 187.16659302 150.99164734 187.90237427 150.98806763 C189.45690568 150.980706 191.01144764 150.97536279 192.56599236 150.97177696 C195.03502236 150.9646051 197.50385435 150.94892912 199.9728241 150.93043518 C206.99439625 150.87802908 214.01586508 150.8300842 221.03762817 150.81451416 C225.33252514 150.8043665 229.62693088 150.77486302 233.92163277 150.73319435 C235.55087103 150.72096569 237.18017898 150.71574806 238.80946159 150.71799278 C252.51834002 150.73221971 263.52969122 148.94580894 273.80105591 139.14044189 C281.41980155 131.15961725 285.1889308 122.27407517 285.33230591 111.23419189 C284.96168024 109.03052022 284.96168024 109.03052022 283.207901 107.53263855 C279.9385664 105.64155021 277.52894244 105.76868357 273.76028442 105.77154541 C273.0588179 105.76777893 272.35735138 105.76401245 271.6346283 105.76013184 C270.1134277 105.75370543 268.59218695 105.75402375 267.07098579 105.76031685 C264.65146966 105.76945577 262.23272408 105.7591677 259.81324768 105.74369812 C252.93492841 105.70370345 246.05666942 105.70237793 239.17825317 105.70465088 C234.96538593 105.70470244 230.75292886 105.68530011 226.54017448 105.65531731 C224.17775774 105.64462114 221.81616976 105.65655103 219.45378113 105.66914368 C204.46786901 105.63429985 191.72905411 102.15166303 180.32839966 91.92169189 C160.50743142 71.538192 165.39436161 44.43250422 164.80105591 17.14044189 C112.00105591 17.14044189 59.20105591 17.14044189 4.80105591 17.14044189 Z M-17.57394409 194.64044189 C-20.50830039 199.1548362 -21.45228783 201.96333762 -21.48947144 207.43438721 C-21.50223114 208.70961243 -21.51499084 209.98483765 -21.52813721 211.29870605 C-21.5311956 212.68865812 -21.53342296 214.07861223 -21.53488159 215.46856689 C-21.54131303 216.90100232 -21.54804165 218.33343644 -21.55505371 219.76586914 C-21.56702179 222.76852459 -21.57073521 225.77106506 -21.56954956 228.77374268 C-21.56934681 232.60473461 -21.59660398 236.434981 -21.63109398 240.26579666 C-21.6534353 243.22568078 -21.65738485 246.18538783 -21.65633011 249.1453476 C-21.65867693 250.5566336 -21.66744835 251.96792518 -21.68299484 253.3791275 C-21.76279155 261.37336644 -21.64806957 267.35629227 -17.19894409 274.14044189 C-13.06830597 278.15184511 -7.94094514 280.14044189 -2.19894409 280.14044189 C2.87239807 278.94547047 7.09208349 276.84941431 10.80105591 273.14044189 C14.06735467 267.65772611 14.91800839 262.78770974 14.96218872 256.48321533 C14.97179626 255.37145935 14.98140381 254.25970337 14.99130249 253.11425781 C14.99555237 251.92149231 14.99980225 250.72872681 15.00418091 249.49981689 C15.00988098 248.26306213 15.01558105 247.02630737 15.02145386 245.7520752 C15.03089307 243.13625949 15.03743355 240.52043195 15.04129028 237.90460205 C15.04783856 233.91925064 15.08201705 229.93426648 15.11355591 225.94903564 C15.12008743 223.40346578 15.12533731 220.85789224 15.12918091 218.31231689 C15.14152771 217.12764832 15.15387451 215.94297974 15.16659546 214.72241211 C15.14690167 207.34411514 14.84342152 200.05514457 10.15261841 194.01934814 C0.82812271 186.90994758 -8.93166831 185.54330949 -17.57394409 194.64044189 Z M32.80105591 206.14044189 C31.35982079 209.02291213 31.64178889 211.53699481 31.60818481 214.75811768 C31.59591858 215.77803551 31.59591858 215.77803551 31.58340454 216.81855774 C31.55854642 219.07428103 31.54202905 221.32994114 31.52761841 223.58575439 C31.52229473 224.35724697 31.51697105 225.12873955 31.51148605 225.92361069 C31.48474613 230.01117713 31.46537842 234.09871302 31.45095825 238.18634033 C31.43764515 241.56194313 31.40984367 244.93693765 31.368927 248.31231689 C31.31946071 252.39309168 31.29481953 256.47331673 31.28773117 260.55437851 C31.28103985 262.10525383 31.26587308 263.65611791 31.24184036 265.20682144 C30.94845062 276.06919009 30.94845062 276.06919009 35.39001465 285.72341919 C39.34571541 289.69588828 44.16027563 292.02762629 49.80105591 292.14044189 C56.96473811 290.7026158 61.11443083 287.87386462 65.40861511 281.90652466 C67.12945745 278.48807244 67.18806831 276.07848788 67.20510864 272.25811768 C67.21540352 271.24976364 67.21540352 271.24976364 67.22590637 270.22103882 C67.24413766 268.0090596 67.24034182 265.7977923 67.23464966 263.58575439 C67.2392139 262.04025036 67.2445202 260.49474835 67.25053406 258.94924927 C67.25945842 255.71292874 67.25705064 252.47685505 67.24710083 249.24053955 C67.23562355 245.10567061 67.25580616 240.97165728 67.28501797 236.83690071 C67.30342141 233.64542277 67.30307913 230.45414819 67.29738045 227.26263046 C67.29722767 225.73888831 67.30323547 224.21513199 67.31567192 222.69144058 C67.57871596 211.702151 67.57871596 211.702151 62.80105591 202.14044189 C58.46864588 198.03020674 54.85513297 196.33922355 48.92605591 195.76544189 C41.43237906 195.99124007 37.04644066 200.39668605 32.80105591 206.14044189 Z M87.42605591 208.51544189 C84.23716917 213.66672048 83.54859674 218.3230653 83.52639771 224.31988525 C83.52128677 225.01177444 83.51617584 225.70366364 83.51091003 226.41651917 C83.49708897 228.68786436 83.49796502 230.95890358 83.50027466 233.23028564 C83.49638376 234.81919974 83.49204828 236.4081128 83.48728943 237.99702454 C83.47984343 241.32147601 83.48010681 244.64582124 83.48538208 247.97027588 C83.49117621 252.2181841 83.47423945 256.46565623 83.45103741 260.71349239 C83.43626468 263.99329648 83.43543314 267.27299637 83.43854713 270.55282784 C83.43803575 272.11843289 83.43283258 273.68404405 83.42273521 275.24961662 C83.41031809 277.44389611 83.41719293 279.63733669 83.42874146 281.831604 C83.42811203 283.07703476 83.4274826 284.32246552 83.42683411 285.6056366 C84.12496981 292.20005138 86.65981086 296.83614372 91.80105591 301.14044189 C96.64865106 304.33544779 101.13433681 305.15680776 106.80105591 304.14044189 C112.42341241 301.82010429 115.88226264 298.51102151 118.80105591 293.14044189 C119.97052467 289.63203562 119.94966023 286.83726416 119.97805786 283.1338501 C119.98462906 282.42449814 119.99120026 281.71514618 119.99797058 280.98429871 C120.01768019 278.63660572 120.02936267 276.28897673 120.03933716 273.94122314 C120.04341269 273.13754995 120.04748821 272.33387676 120.05168724 271.50584984 C120.07254086 267.24969109 120.08684402 262.99356449 120.09622192 258.73736572 C120.10726782 254.35376782 120.14164831 249.97068013 120.18139362 245.58726215 C120.2076169 242.20620316 120.21591893 238.82526451 120.2195034 235.44411278 C120.22435687 233.82906853 120.23593535 232.21402921 120.2545414 230.59908485 C120.5018242 218.77584638 120.5018242 218.77584638 115.80105591 208.14044189 C111.56305377 204.01110648 107.8494064 202.34191899 101.98855591 201.76544189 C96.08905207 201.93272461 91.54577427 204.39572354 87.42605591 208.51544189 Z " fill="#000000" transform="translate(57.198944091796875,10.85955810546875)"/>
<path d="M0 0 C1.12539033 -0.00551503 1.12539033 -0.00551503 2.27351582 -0.01114148 C4.80076908 -0.02220099 7.32798126 -0.02602596 9.85525513 -0.02983093 C11.66184623 -0.03609378 13.46843603 -0.04274042 15.27502441 -0.04974365 C20.19236862 -0.06716784 25.10970309 -0.07770887 30.02707052 -0.08594918 C33.09689727 -0.0910954 36.16672096 -0.09717124 39.23654556 -0.10346031 C48.83457754 -0.12251472 58.4326018 -0.13674639 68.03064907 -0.14507228 C79.12287841 -0.15485236 90.21490861 -0.18119095 101.30706775 -0.22157317 C109.87270655 -0.25169121 118.43828811 -0.26653697 127.00397885 -0.26985329 C132.12381447 -0.27220835 137.2434374 -0.28122802 142.3632164 -0.30631447 C147.17803053 -0.32952543 151.99249086 -0.33385667 156.80734634 -0.32355309 C158.57626774 -0.32305594 160.34520614 -0.32942876 162.11407471 -0.34310913 C164.52585972 -0.36072093 166.93636016 -0.35377592 169.34814453 -0.34057617 C170.05106341 -0.35154542 170.75398229 -0.36251466 171.47820175 -0.37381631 C174.85339655 -0.32909919 176.52385416 -0.07261095 179.20436287 2.05265522 C181.61355323 5.21299171 181.92714857 6.9475065 181.94290161 10.86543274 C181.94993607 11.84760773 181.95697052 12.82978271 181.96421814 13.84172058 C181.96838242 14.9093161 181.97254669 15.97691162 181.97683716 17.07685852 C182.00005818 19.33988842 182.0241764 21.60290926 182.04910278 23.86592102 C182.08404419 27.43141029 182.11345881 30.99657142 182.12698364 34.56221008 C182.14259775 38.0050003 182.18291832 41.44682735 182.22683716 44.88935852 C182.22397453 46.46038834 182.22397453 46.46038834 182.22105408 48.06315613 C182.44129654 61.60144341 187.65729154 72.59927338 195.86355591 83.14717102 C203.7959945 93.46764741 207.8996384 105.8086824 207.94822693 118.76173401 C207.95895988 120.73396187 207.95895988 120.73396187 207.96990967 122.74603271 C207.97274943 124.19126868 207.97546121 125.63650491 207.97805786 127.08174133 C207.98432863 128.61318107 207.99097597 130.14461931 207.99797058 131.67605591 C208.01893749 136.69245865 208.02936491 141.70886145 208.03933716 146.72529602 C208.04338723 148.45673895 208.04750423 150.18818172 208.05168724 151.91962433 C208.07072139 160.05466996 208.08495708 168.18970661 208.09329921 176.32477021 C208.10307035 185.69688057 208.12939407 195.06875469 208.1698001 204.44078183 C208.20000847 211.69790124 208.21477248 218.95495308 208.21808022 226.21213412 C208.22042494 230.54069702 208.22931014 234.86900701 208.2545414 239.19750214 C208.27791065 243.27206675 208.2820201 247.34621347 208.27178001 251.42082787 C208.27128672 252.9098748 208.27754593 254.39894294 208.29133606 255.8879261 C208.39836563 268.13702108 206.36972443 277.96645474 197.80105591 287.14717102 C190.25816955 294.04844256 182.01539578 297.13162408 171.80105591 297.14717102 C164.14341695 296.48181534 157.61982891 293.54359408 150.80105591 290.14717102 C150.53293091 290.89998352 150.26480591 291.65279602 149.98855591 292.42842102 C146.59203062 300.20467628 139.29322927 303.97740537 131.80105591 307.14717102 C124.79404193 309.48284235 114.93054991 309.64642359 108.01199341 306.80732727 C105.17738771 305.36972892 102.46809987 303.8738122 99.80105591 302.14717102 C99.40015747 302.71564758 98.99925903 303.28412415 98.58621216 303.86982727 C92.46006309 312.19083247 85.34016713 319.35600189 74.80105591 321.14717102 C67.66039093 321.8248142 61.80617946 321.64003976 55.06228638 319.11616516 C54.07582123 318.74939163 53.08935608 318.3826181 52.07299805 318.00473022 C51.32325714 317.72173569 50.57351624 317.43874115 49.80105591 317.14717102 C49.81104866 318.35414139 49.81104866 318.35414139 49.82124329 319.585495 C49.8816019 327.20532453 49.92715521 334.82503651 49.95649242 342.44504356 C49.97208252 346.36164507 49.99319738 350.27804739 50.02737427 354.1945343 C50.06020752 357.98117122 50.07795885 361.76761774 50.08568764 365.55438614 C50.09118851 366.99193438 50.1019292 368.42947338 50.11824608 369.86693954 C50.26716045 383.54201117 48.46624408 392.92726528 39.01980591 403.05732727 C32.05571235 409.77881921 24.3973807 412.32169392 14.80105591 412.64717102 C4.21944133 412.26595565 -3.31255111 409.14738019 -10.96456909 401.78779602 C-18.25345815 393.1736544 -20.35814746 384.37484385 -20.31919861 373.38366699 C-20.32005303 372.50143111 -20.32090746 371.61919523 -20.32178777 370.71022493 C-20.32343466 367.7545346 -20.31793412 364.79890104 -20.31246948 361.84321594 C-20.31218741 359.72427878 -20.31234573 357.60534152 -20.31291199 355.48640442 C-20.31319919 349.73274322 -20.30731479 343.97910282 -20.30033803 338.22544646 C-20.29409179 332.21297164 -20.29349968 326.20049636 -20.29231262 320.1880188 C-20.28920306 308.80194722 -20.28099471 297.41588523 -20.27096313 286.02981788 C-20.25979037 273.06743471 -20.25428861 260.10505109 -20.2492677 247.14266431 C-20.2388118 220.47749456 -20.2212196 193.81233333 -20.19894409 167.14717102 C-20.9866217 167.15383286 -21.77429932 167.16049469 -22.58584595 167.1673584 C-30.05789056 167.22780563 -37.52981437 167.27331456 -45.00204086 167.30260754 C-48.84235937 167.31817429 -52.68247358 167.33924503 -56.52267456 167.37348938 C-60.23799865 167.40640775 -63.95312791 167.42409138 -67.66858673 167.43180275 C-69.07657177 167.43728867 -70.48454778 167.44799879 -71.89244843 167.46436119 C-89.45055704 167.66005311 -103.02434672 163.73060419 -115.91378784 151.49482727 C-126.55159644 140.56607006 -132.01215387 128.4226381 -132.63644409 113.20967102 C-132.50824573 105.79019076 -130.88449175 99.85022722 -125.55441284 94.49482727 C-119.68552334 89.92424741 -113.12450058 88.89747896 -105.80172729 88.90766907 C-104.74646095 88.90464783 -104.74646095 88.90464783 -103.6698761 88.90156555 C-102.15362756 88.89804141 -100.63736426 88.89876056 -99.12111855 88.90334129 C-96.71013865 88.90898239 -94.29963143 88.89969677 -91.88868713 88.88613892 C-85.03773867 88.84922054 -78.18695241 88.83041715 -71.33590698 88.8417511 C-67.13246037 88.84764823 -62.92968047 88.82912122 -58.72636986 88.7958622 C-57.13701429 88.78798013 -55.54758464 88.78908604 -53.95824623 88.7998867 C-44.13898871 88.8637259 -32.99696324 88.84465463 -25.5040741 81.48168945 C-25.0733812 81.04129837 -24.64268829 80.60090729 -24.19894409 80.14717102 C-23.53894409 80.14717102 -22.87894409 80.14717102 -22.19894409 80.14717102 C-21.92050659 79.56580383 -21.64206909 78.98443665 -21.35519409 78.38545227 C-19.91122361 75.5901986 -18.17856359 73.04386448 -16.41769409 70.44013977 C-12.68274925 63.41317623 -12.90481955 56.39186015 -12.89035034 48.60810852 C-12.86520538 46.1471685 -12.83980716 43.68623105 -12.81417847 41.22529602 C-12.78537371 37.36299729 -12.76134037 33.50074304 -12.74264526 29.63838196 C-12.72102564 25.89889965 -12.68160672 22.15991812 -12.64035034 18.42060852 C-12.64023453 17.26531647 -12.64011871 16.11002441 -12.63999939 14.91972351 C-12.62666061 13.84155365 -12.61332184 12.76338379 -12.59957886 11.65254211 C-12.59450821 10.70768951 -12.58943756 9.76283691 -12.58421326 8.78935242 C-12.12292818 5.62585284 -11.05912409 3.72639118 -9.19894409 1.14717102 C-6.242281 -0.33116053 -3.24193554 -0.00084494 0 0 Z M4.80105591 17.14717102 C4.47105591 32.32717102 4.14105591 47.50717102 3.80105591 63.14717102 C-1.09447223 79.05763747 -6.3800709 90.99851798 -21.09910583 99.53244019 C-31.19176936 104.7897903 -41.02745281 105.72291003 -52.15567207 105.66359138 C-54.57354953 105.65076862 -56.99031758 105.66241834 -59.40815735 105.67962646 C-63.65951337 105.70608448 -67.91058838 105.71193038 -72.16201782 105.71052551 C-78.99622691 105.70827895 -85.83009354 105.72241585 -92.6641674 105.76611137 C-95.04187684 105.77592874 -97.41903978 105.76725214 -99.79673767 105.75741577 C-101.25055297 105.76355751 -102.70436529 105.77046841 -104.15817261 105.77827454 C-105.42468155 105.77731277 -106.69119049 105.77635101 -107.99607849 105.77536011 C-111.40623135 106.17123437 -112.80602203 106.73224697 -115.19894409 109.14717102 C-117.00330836 116.25848903 -114.33728198 123.80550008 -111.19894409 130.14717102 C-104.89362466 140.38923134 -95.90103974 147.30639435 -84.19894409 150.14717102 C-78.41377271 150.70361835 -72.66643484 150.70533065 -66.85910034 150.68623352 C-65.20287284 150.69615825 -63.54665636 150.70810619 -61.89045715 150.7219696 C-57.5634688 150.75411312 -53.23673343 150.76470583 -48.90963745 150.76881409 C-41.96089292 150.77762254 -35.0123534 150.81308102 -28.06377983 150.86098862 C-25.64407968 150.8735519 -23.22464246 150.87281895 -20.80491638 150.87071228 C-19.3243591 150.87729112 -17.84380362 150.88429709 -16.36325073 150.89179993 C-15.07294449 150.89305878 -13.78263824 150.89431763 -12.45323181 150.89561462 C-9.40054458 151.13158731 -7.69740674 151.43116162 -5.19894409 153.14717102 C-3.53304265 156.4789739 -4.05638799 160.21890606 -4.06091309 163.88244629 C-4.05809181 164.79801546 -4.05527053 165.71358463 -4.05236375 166.65689832 C-4.04398984 169.74375221 -4.04267711 172.83057036 -4.04122925 175.91743469 C-4.03656303 178.12309369 -4.03141979 180.32875171 -4.02583313 182.53440857 C-4.01453574 187.29419045 -4.00610945 192.053966 -3.9997139 196.81375694 C-3.98905251 204.33916953 -3.9688123 211.86453686 -3.94659424 219.3899231 C-3.91603611 229.94124387 -3.88681146 240.49256599 -3.86105347 251.04389954 C-3.85941528 251.71382068 -3.8577771 252.38374183 -3.85608928 253.07396362 C-3.82982084 263.92316493 -3.81116892 274.77236964 -3.79446156 285.62158927 C-3.77703151 296.76025543 -3.74798584 307.89886198 -3.7095722 319.03747731 C-3.68848675 325.29137362 -3.67304275 331.54517478 -3.67076492 337.79910851 C-3.66861932 343.68338484 -3.65275857 349.56746318 -3.6263752 355.45167923 C-3.61917711 357.61116889 -3.61708369 359.77068252 -3.62047768 361.9301815 C-3.62437221 364.87934804 -3.60991783 367.82788222 -3.59094238 370.77697754 C-3.59647208 371.63068678 -3.60200177 372.48439601 -3.60769904 373.36397523 C-3.52476176 380.83660717 -1.53964075 386.65388302 3.80105591 392.14717102 C8.84910145 395.63272627 13.85682488 395.99500112 19.80105591 395.14717102 C25.50123751 393.13534222 29.26471851 389.29301897 31.89038181 383.91663647 C32.98961949 380.57372732 33.05460229 377.79333935 33.05934143 374.27322388 C33.06301714 373.59405417 33.06669284 372.91488446 33.07047993 372.21513385 C33.08043626 369.94606461 33.07631384 367.67724158 33.07229614 365.40815735 C33.0766847 363.7783431 33.08198733 362.1485311 33.08813477 360.51872253 C33.09962804 357.01128582 33.10509371 353.50390947 33.10601616 349.99645424 C33.1079591 344.44423573 33.12602595 338.89214165 33.14677429 333.33996582 C33.19593755 319.54575518 33.22681299 305.75151067 33.24807739 291.95722961 C33.26462191 281.24249638 33.28750468 270.52786975 33.33109814 259.81320781 C33.3528152 254.30060581 33.36093781 248.78820659 33.3587054 243.27556479 C33.36037921 239.83559114 33.37447143 236.39574837 33.39191818 232.95582199 C33.39748953 231.36843384 33.39802906 229.78101822 33.39298058 228.19362831 C33.35418183 214.55749852 34.66473038 204.39572173 44.50027466 194.42451477 C52.09969759 187.47403133 60.49255154 185.77497295 70.60183716 185.86201477 C78.38803898 186.55602299 85.24945696 190.07062056 91.80105591 194.14717102 C92.26254028 193.62767883 92.72402466 193.10818665 93.19949341 192.57295227 C99.975522 185.32822605 107.31563854 180.74508454 117.34402466 179.94404602 C127.60982985 179.76208197 135.42779891 182.22975756 143.80105591 188.14717102 C144.35793091 187.47170227 144.91480591 186.79623352 145.48855591 186.10029602 C150.1308621 180.67381648 154.01830161 176.55757131 160.80105591 174.14717102 C161.91480591 173.73467102 163.02855591 173.32217102 164.17605591 172.89717102 C172.69186819 171.13527882 179.67687741 172.27016836 187.80105591 175.14717102 C188.79105591 175.47717102 189.78105591 175.80717102 190.80105591 176.14717102 C190.89431398 168.1402994 190.96510035 160.13366001 191.0083046 152.12637711 C191.02905525 148.40703708 191.05713864 144.68807243 191.10281372 140.96894836 C191.14672534 137.37031694 191.17028679 133.77204332 191.18056488 130.17316437 C191.19139999 128.1526813 191.22255117 126.13233938 191.25424194 124.11207581 C191.25673704 113.70301472 189.44964279 104.25751075 183.48855591 95.52217102 C182.88656372 94.61982727 182.28457153 93.71748352 181.66433716 92.78779602 C180.45495013 91.07386387 179.22419283 89.37474029 177.96902466 87.69404602 C162.37513675 66.63040659 165.44025025 43.35413903 164.80105591 17.14717102 C112.00105591 17.14717102 59.20105591 17.14717102 4.80105591 17.14717102 Z M158.92605591 194.95967102 C154.10041084 202.19813863 154.49376578 209.53861535 154.50027466 217.98310852 C154.49598953 219.21703339 154.49170441 220.45095825 154.48728943 221.72227478 C154.48155966 224.32614022 154.48103586 226.93002166 154.48538208 229.53388977 C154.48853955 233.50161768 154.46507301 237.4685978 154.43972778 241.43623352 C154.43745431 243.97269092 154.43675152 246.50915031 154.43777466 249.04560852 C154.42856491 250.22400299 154.41935516 251.40239746 154.40986633 252.61650085 C154.45423449 260.57945604 155.31780295 267.20821805 159.61355591 274.02217102 C163.99585246 278.2792591 168.73854463 279.93811891 174.80105591 280.14717102 C180.39168668 278.95222704 184.16014074 276.62029537 187.80105591 272.14717102 C190.33517418 267.80360626 191.18320419 264.63890233 191.22097778 259.62617493 C191.23688965 258.35110077 191.25280151 257.07602661 191.26919556 255.76231384 C191.27046304 254.38278764 191.27063953 253.00326006 191.26980591 251.62373352 C191.27691588 250.19415491 191.28461609 248.76457913 191.2928772 247.33500671 C191.30629273 244.34425417 191.30790436 241.35376546 191.30203247 238.36299133 C191.29614209 234.54755107 191.32671181 230.73338583 191.36714935 226.91819191 C191.39311662 223.96685577 191.39589566 221.01582289 191.39225769 218.06438828 C191.39394087 216.65867792 191.4035056 215.25295233 191.42140198 213.84735489 C191.51216186 205.83761512 191.51261236 199.23198469 185.80105591 193.14717102 C176.83730972 186.15544899 166.71313424 186.41678803 158.92605591 194.95967102 Z M105.86355591 203.20967102 C102.81579911 207.55041555 102.66328221 210.59083077 102.60818481 215.78657532 C102.60000732 216.45691299 102.59182983 217.12725067 102.58340454 217.81790161 C102.55860053 220.03572205 102.54204472 222.25347854 102.52761841 224.47138977 C102.52229473 225.23093271 102.51697105 225.99047565 102.51148605 226.77303505 C102.48477221 230.79576736 102.46539438 234.81846888 102.45095825 238.84126282 C102.43763722 242.16153118 102.40981723 245.48118231 102.368927 248.80122375 C102.31945763 252.81831415 102.29481969 256.8348462 102.28773117 260.85222816 C102.28104202 262.37798471 102.26588098 263.90372995 102.24184036 265.42931175 C101.97312128 276.17313769 101.97312128 276.17313769 106.39001465 285.72122192 C110.33387885 289.70675357 115.16215941 292.03439309 120.80105591 292.14717102 C126.22254949 290.97235358 130.87840652 289.18519245 134.80105591 285.14717102 C137.5002052 280.62594928 138.18209561 277.28213267 138.20510864 272.0436554 C138.21540352 271.01804253 138.21540352 271.01804253 138.22590637 269.97171021 C138.24409948 267.72789824 138.24034844 265.48479038 138.23464966 263.24092102 C138.23921462 261.67203038 138.24452113 260.10314174 138.25053406 258.53425598 C138.25945006 255.25263829 138.25705886 251.97126417 138.24710083 248.68965149 C138.23560444 244.49306322 138.2558398 240.29731558 138.28501797 236.10083771 C138.30339887 232.86307983 138.30308395 229.62552281 138.29738045 226.38772583 C138.29722751 224.84082865 138.30324922 223.29391762 138.31567192 221.74707031 C138.33061954 219.58107826 138.31988037 217.41663169 138.30276489 215.25068665 C138.30259872 214.02080017 138.30243256 212.7909137 138.30226135 211.52375793 C137.30609933 204.81268229 132.97326552 200.99881648 127.80105591 197.14717102 C119.37666091 194.33903935 111.65433693 196.5369607 105.86355591 203.20967102 Z M53.42605591 208.58467102 C50.25782992 213.58071969 49.54578673 217.46389251 49.51052856 223.3808136 C49.50045273 224.44527962 49.50045273 224.44527962 49.49017334 225.53125 C49.4712371 227.86813945 49.46727124 230.20474096 49.46511841 232.54170227 C49.45868683 234.17449052 49.4519582 235.80727762 49.44494629 237.44006348 C49.43298404 240.86044484 49.42926432 244.2807253 49.43045044 247.7011261 C49.43065343 252.06901124 49.40336745 256.4362443 49.36890602 260.80397511 C49.34659001 264.17647227 49.34261435 267.54881376 49.34366989 270.92137718 C49.34132039 272.53082714 49.33253369 274.14028182 49.31700516 275.74965858 C49.10175659 287.54141417 49.10175659 287.54141417 53.80105591 298.14717102 C57.72353272 301.87352399 61.55817141 304.42337813 67.05105591 304.52217102 C72.01126191 304.38348105 75.81687532 303.1244563 79.80105591 300.14717102 C85.03575464 294.54877114 85.91814208 289.79217845 85.97805786 282.22651672 C85.98462906 281.53813217 85.99120026 280.84974762 85.99797058 280.14050293 C86.01763894 277.86798479 86.02935322 275.59553261 86.03933716 273.32295227 C86.04341269 272.54350943 86.04748821 271.76406658 86.05168724 270.96100426 C86.07252295 266.83336531 86.08683404 262.70575933 86.09622192 258.57807922 C86.10726629 254.33248444 86.1416501 250.08741665 86.18139362 245.84200764 C86.20764549 242.56213462 86.21592143 239.28238542 86.2195034 236.00241661 C86.22434921 234.43843728 86.23590548 232.87446273 86.2545414 231.31058693 C86.55400925 219.12577368 86.55400925 219.12577368 81.80105591 208.14717102 C77.10730446 203.72919865 72.46707544 201.77053077 65.99246216 201.86592102 C60.8805882 202.52199041 56.97197844 204.94543473 53.42605591 208.58467102 Z " fill="#000000" transform="translate(525.1989440917969,9.852828979492188)"/>
<path d="M0 0 C2.90629992 0.51919526 4.08919958 0.94649345 5.90234375 3.33984375 C6.72958122 7.03943355 6.8592975 10.79825009 6.96484375 14.578125 C7.34139113 21.20300541 9.71805598 26.19478604 13.90234375 31.33984375 C19.17315346 35.68577553 23.98528873 37.35593237 30.77734375 37.65234375 C34.56806998 37.95486846 36.69344464 38.2292501 40.08984375 40.02734375 C42.36597862 42.93137789 42.90234375 44.65065359 42.90234375 48.33984375 C41.29822527 51.86890442 40.16075013 53.16757283 36.90234375 55.33984375 C25.69632058 56.62309008 15.24947793 54.8512629 6.08984375 48.08984375 C-4.21188556 39.31844379 -9.88024865 29.97480889 -11.09765625 16.33984375 C-11.15910398 11.15092473 -10.8348709 6.84376164 -8.53515625 2.15234375 C-5.52542036 -0.08566499 -3.67881396 -0.28087779 0 0 Z " fill="#000000" transform="translate(173.09765625,94.66015625)"/>
<path d="M0 0 C2.84455374 2.11518098 3.72256414 3.87099018 4.5625 7.2890625 C6.08156352 18.01744859 3.6649194 28.82054463 -2.33984375 37.8203125 C-7.28465566 44.31255967 -12.58791797 48.56451885 -20 52 C-20.68707031 52.32097656 -21.37414062 52.64195312 -22.08203125 52.97265625 C-28.67835881 55.60384442 -36.00989108 56.07215439 -43 55 C-46.31894208 52.85991713 -47.71995487 51.82263257 -49 48.0625 C-49 44.39707859 -48.23178648 42.86943977 -46 40 C-42.63119603 37.75413069 -41.37978667 37.78515769 -37.4375 37.6875 C-30.19624699 37.15338097 -24.10799313 35.44329529 -19.1171875 29.9140625 C-14.84854312 23.87197167 -12.87615141 18.29605845 -13.0625 10.875 C-13.15699902 6.73594311 -12.75108337 4.28013786 -10 1 C-6.77242615 -0.61378693 -3.49023761 -0.57364301 0 0 Z " fill="#000000" transform="translate(585,94)"/>
</svg>
